<?xml version="1.0" encoding="utf-8"?>
<!-- Generator: Adobe Illustrator 16.0.0, SVG Export Plug-In . SVG Version: 6.00 Build 0)  -->
<!DOCTYPE svg PUBLIC "-//W3C//DTD SVG 1.1//EN" "http://www.w3.org/Graphics/SVG/1.1/DTD/svg11.dtd">
<svg version="1.1" id="Layer_1" xmlns="http://www.w3.org/2000/svg" xmlns:xlink="http://www.w3.org/1999/xlink" x="0px" y="0px"
	 width="840px" height="320px" viewBox="0 0 840 320" enable-background="new 0 0 840 320" xml:space="preserve">
<g>
	<g>
		<path fill-rule="evenodd" clip-rule="evenodd" fill="#10113D" d="M819.876,186.767c0.772,0.081-2.262,4.228-3.441,7.178
			c-0.53,1.326-1.659,4.116-1.868,4.276c-5.506,5.162-23.983,9.886-35.703,3.518c-12.527-6.806-19.521-17.413-22.716-30.951
			c-0.54-2.285-1.143-4.572-1.94-6.777c-1.264-3.494-3.107-3.78-5.378-0.775c-1.711,2.264-2.985,4.859-4.714,7.108
			c-1.963,2.554-4.008,5.115-6.386,7.265c-4.77,4.314-10.203,5.233-16.36,1.851c-0.511,1.679-0.912,3.149-1.407,4.587
			c-0.733,2.124-1.358,4.31-2.341,6.317c-1.99,4.07-4.224,5.037-8.587,4.348c-0.916-0.145-2.064,0.129-2.884,0.598
			c-4.829,2.765-9.722,3.37-14.915,1.034c-8.559-3.85-14.746-9.939-18.177-19.481c-1.515,2.736-2.675,5.013-4,7.188
			c-2.192,3.598-3.376,3.925-7.565,2.081c-1.707,2.349-3.518,4.743-5.221,7.212c-1.637,2.374-3.302,3.986-6.714,3.626
			c-2.143-0.227-4.43,1.342-6.705,1.872c-7.301,1.699-14.004-0.393-20.427-3.61c-9.122-4.571-15.479-11.883-20.122-20.822
			c-1.433-2.76-2.913-5.494-5.175-8.309c-0.966,3.797-1.93,7.596-2.896,11.394c-1.329,5.227-2.458,10.517-4.081,15.65
			c-0.706,2.233-1.349,5.112-4.767,5.203c-2.033,0.054-3.616-0.667-4.022-2.671c-0.895-4.398-2.048-8.825-2.221-13.275
			c-0.524-13.452,1.949-26.633,4.637-39.725c3.49-17.001,7.348-33.928,11.035-50.889c0.139-0.638,0.149-1.303,0.282-2.539
			c-1.232,0.645-2.259,0.877-2.807,1.518c-2.844,3.328-6.189,6.426-8.215,10.217c-6.422,12.025-12.134,24.429-18.508,36.481
			c-5.067,9.581-12.521,17.302-20.746,24.277c-0.594,0.504-1.145,1.061-1.707,1.603c-0.053,0.053-0.037,0.177-0.116,0.625
			c0.876,0.35,1.816,0.763,2.782,1.104c4.269,1.509,6.861,5.639,6.146,10.171c-0.823,5.226-1.738,10.44-2.771,15.628
			c-1.141,5.735-7.382,8.832-14.336,7.324c-4.278-0.929-6.377-3.953-7.643-7.775c-2.066-6.241-0.704-12.452,0.365-18.629
			c0.517-2.985,1.349-5.921,2.124-8.854c1.396-5.283,4.843-8.699,9.536-11.432c13.793-8.034,25.463-18.32,32.896-32.788
			c4.937-9.609,9.489-19.441,14.924-28.76c3.121-5.354,7.612-9.921,11.588-14.761c1.245-1.516,3.334-2.716,4.862-1.284
			c1.043,0.977,1.434,3.461,1.057,5.015c-2.977,12.269-6.62,24.388-9.256,36.724c-3.253,15.224-5.86,30.591-8.472,45.942
			c-0.848,4.978-0.964,10.099-1.128,15.163c-0.048,1.494,0.885,3.02,1.368,4.53c0.307,0.003,0.614,0.006,0.922,0.01
			c0.512-1.094,1.195-2.141,1.507-3.289c1.697-6.246,3.152-12.562,5.001-18.761c0.999-3.348,2.49-6.572,4-9.738
			c1.046-2.193,3.883-2.549,5.311-0.468c2.031,2.961,3.859,6.161,5.167,9.498c3.594,9.172,9.693,16.099,18.37,20.49
			c3.822,1.935,8.24,2.692,12.64,4.063c0.601-4.685,0.831-8.59,1.653-12.366c1.02-4.689,2.384-9.319,3.876-13.884
			c1.217-3.726,5.159-5.196,10.097-4.138c6.581,1.41,10.98,6.359,11.841,13.159c0.124,0.985,0.75,1.906,1.334,3.316
			c1.558-2.881,2.854-5.256,4.128-7.643c1.093-2.047,2.919-3.319,5.04-2.602c1.522,0.514,3.248,1.981,3.828,3.442
			c1.858,4.681,3.766,9.242,7.339,12.937c2.894,2.992,6.245,4.976,10.688,5.354c0.497-3.131,0.918-6.196,1.478-9.236
			c1.144-6.207,2.8-12.251,6.432-17.532c0.514-0.747,1.549-1.455,2.43-1.581c6.008-0.862,10.482,1.88,13.859,6.534
			c6.052,8.341,14.86,8.205,20.807-0.317c2.52-3.612,5.071-7.278,8.115-10.431c4.633-4.795,9.556-3.301,11.324,3.169
			c1.158,4.24,2.065,8.55,3.231,12.788c1.993,7.251,5.829,13.368,11.733,18.08c2.333,1.862,4.663,3.837,7.282,5.209
			c6.428,3.368,16.763,5.904,20.669,4.96C816.041,190.158,818.941,186.669,819.876,186.767z M652.595,179.401
			c1.414-0.987,2.949-1.766,4.053-2.947c0.598-0.64,0.988-2.382,0.569-2.913c-2.297-2.907-4.986-5.4-9.44-5.66
			C648.275,172.363,648.18,176.71,652.595,179.401z M709.412,177.771c5.015-4.867,3.835-7.816-1.695-9.254
			C708.526,171.429,708.661,175.071,709.412,177.771z M531.332,176.656c0.437-0.488,0.874-0.977,1.311-1.464
			c3.951,1.312,5.427,2.934,6.135,6.116c-0.377,0.379-0.036,1.306-0.413,1.685C534.529,184.91,531.875,180.634,531.332,176.656z"/>
		<path fill-rule="evenodd" clip-rule="evenodd" fill="#10113D" d="M442.334,291.641c-0.745,0.404-8.662,5.027-16.512,7.046
			c-3.973,1.022-7.679,0.411-11.383-1.951c-5.281-3.368-7.905-8.342-9.526-13.902c-2.669-9.154-4.882-18.439-4.361-28.116
			c0.051-0.956,0.099-1.912,0.779-2.944c0.424-0.407,0.927,6.823,1.45,10.226c0.799,5.207,2.473,10.082,5.688,14.33
			c3.507,4.633,9.682,6.318,15.258,4.725c10.619-3.033,19.359-8.889,26.873-16.843c11.217-11.001,25.006-29.73,31.532-41.23
			c9.388-16.042,17.261-32.78,22.618-50.626c4.903-16.333,5.925-32.889,2.996-49.725c-3.279-18.853-6.748-37.678-8.049-56.823
			c-0.646-9.509,1.4-17.837,5.233-26.345c1.644-1.51,3.711-3.174,4.596-2.928c0.737,0.196,0.885,0.764,0.353,3.524
			c-1.886,10.227,0.871,20.113,1.991,30.107c1.344,11.982,2.929,23.938,4.306,35.916c0.638,5.544,1.229,11.107,1.477,16.678
			c0.234,5.257-0.036,10.534-0.028,15.803c0.004,2.918,0.155,5.834,0.182,8.752c0.055,5.836,0.401,11.694,0.033,17.505
			c-0.87,13.694-2.496,27.279-6.887,40.41c-8.21,19.001-18.271,33.276-19.927,35.962c-10.848,14.895-26.01,31.311-26.654,32.062
			C462.558,275.361,451.468,285.754,442.334,291.641z"/>
	</g>
	<g>
		<path fill-rule="evenodd" clip-rule="evenodd" fill="#10113D" d="M238.834,179.038c-0.874,2.869-1.402,5.387-2.409,7.695
			c-1.042,2.385-2.359,4.706-3.9,6.802c-1.76,2.394-4.831,2.835-8.05,1.353c-6.904-3.183-10.273-9.131-12.235-16.092
			c-0.658-2.335-1.159-4.715-1.775-7.253c-2.915,0.924-2.913,3.363-3.581,5.396c-1.644,5.004-2.887,10.201-5.109,14.938
			c-3.377,7.2-10.277,8.18-16.22,2.77c-5.518-5.023-7.492-11.868-9.287-18.72c-0.892-3.403-1.445-6.936-1.74-10.444
			c-0.292-3.471-0.063-6.985-0.678-10.574c-2.021,6.489-4.195,12.936-6.029,19.477c-14.511,40.403-17.756,44.336-23.163,48.662
			c-3.533,4.101-14.453,6.194-24.482-1.277c-16.911-17.108-19.244-33.276-22.024-50.733c-1.105-9.299-1.486-30.674,2.044-49.43
			c0.083-0.439,0.011-0.91,0.011-1.721c-4.96,4.045-7.546,9.368-9.843,14.641c-4.103,9.417-7.9,18.993-11.26,28.698
			c-2.394,6.916-3.745,14.188-5.77,21.241c-2.359,8.216-5.741,15.791-12.97,21.147c-7.731,5.729-19.274,5.875-26.88-0.075
			c-10.029-7.848-14.046-18.534-13.422-30.831c0.217-4.284,3.12-12.57,5.256-12.766c0.519-0.247,1.539,1.985,2.102,3.084
			c3.392,6.616,6.394,13.458,10.173,19.841c3.113,5.258,8.329,7.914,14.486,8.33c5.395,0.365,9.547-2.057,11.71-6.822
			c3.721-8.197,7.187-16.532,10.302-24.978c3.156-8.555,5.779-17.307,8.582-25.989c0.479-1.482,4.271-13.729,11.929-22.462
			c3.154-3.597,6.232-7.302,9.212-11.063c1.667-2.104,3.388-4.32,4.39-6.77c10.256-25.07,25.284-46.759,45.754-64.527
			c3.583-3.11,7.918-5.407,12.066-7.802c5.72-3.305,11.167-2.192,16.146,1.762c6.377,5.065,9.919,12.074,12.916,19.397
			c4.437,10.844,4.866,22.334,5.279,33.818c0.235,6.524,0.103,13.091,0.815,19.562c0.905,8.221,2.557,16.356,3.769,24.547
			c0.464,3.136,0.781,6.229-1.903,8.898c-2.026,2.015-3.287,4.834-5.407,6.71c-1.14,1.009-3.368,1.029-5.111,1.05
			c-1.885,0.022-2.701-1.201-2.968-3.191c-0.357-2.666-1.239-5.264-1.999-8.301c-2.941,3.877-4.206,8.047-4.774,12.324
			c-1.259,9.466-2.055,19.014,1.008,28.293c1.245,3.771,2.937,7.517,5.096,10.838c3.079,4.734,9.07,5.537,12.044,1.822
			c1.266-1.58,1.615-3.894,2.378-5.875c1.752-4.552,3.379-9.157,5.332-13.621c0.587-1.342,1.926-2.521,3.193-3.364
			c2.795-1.858,5.381-0.937,6.343,2.205c1,3.266,1.684,6.628,2.674,9.897c1.297,4.281,3.645,7.841,7.887,9.718
			c2.903,1.285,3.59,0.7,4.604-2.229c1.398-4.04,2.925-8.061,4.763-11.914c1.375-2.882,4.515-3.41,7.171-1.517
			c1.991,1.419,3.772,3.137,5.784,4.521c5.003,3.443,9.783,3.291,14.663-0.354c4.971-3.713,10.344-4.217,15.803-1.51
			c3.497,1.735,6.83,3.886,10,6.177c8.457,6.112,17.722,9.903,28.199,10.527c0.585,0.035,1.178,0.11,1.755,0.053
			c0.566-0.056,1.119-0.258,1.691-0.399c-3.018-8.742-1.034-16.68,3.363-24.262c1.031-1.777,2.181-3.485,3.274-5.228
			c3.02-4.812,5.581-4.836,11.412-3.535c3.148,0.701,5.945,4.247,5.785,8.288c-0.215,5.443-0.967,10.895-1.921,16.266
			c-0.403,2.268-0.124,3.384,1.991,4.35c7.118,3.248,14.242,3.222,21.479,0.514c1.807-0.676,2.525-1.5,2.083-3.711
			c-1.945-9.712,1.547-17.73,8.436-24.408c2.002-1.94,4.617-2.778,7.554-2.216c3.131,0.601,5.566,1.712,5.991,4.898
			c0.295,2.212,0.561,8.49-3.736,15.044c-2.9,4.424-2.261,5.898,1.893,8.405c11.792,7.115,29.128,8.341,34.194,6.951
			c7.264-1.991,11.949-8.032,14.842-14.105c1.205-2.53,1.935-2.801,1.935-1.973c0,2.383-3.429,14.87-7.611,20.482
			c-2.481,4.417-10.019,8.867-14.969,9.439c-3.834,0.442-9.571,1.106-13.803,0.41c-5.362-0.883-10.68-2.585-15.733-4.632
			c-4.951-2.006-9.038-4.882-14.069-7.527c-5.103,7.115-13.112,11.032-22.25,11.851c-6.114,0.547-11.872-0.937-17.491-3.276
			c-1.04-0.434-2.615-0.325-3.671,0.146c-6.753,3.007-13.687,4.674-21.128,3.661c-12.832-1.746-24.401-6.433-34.673-14.403
			c-4.387-3.404-8.986-4.218-14.053-0.712c-6.074,4.202-12.281,3.127-18.206-0.702C242.374,181.531,240.713,180.329,238.834,179.038
			z M104.803,149.23c0.14,2.101,0.222,6.092,0.704,10.034c1.151,9.42,3.172,18.634,6.177,27.681
			c2.235,6.728,4.872,13.213,9.157,18.814c7.3,9.544,16.043,11.161,23.81,0.744c2.611-3.502,5.098-7.207,6.951-11.144
			c4.317-9.168,8.492-18.424,12.211-27.848c4.278-10.84,7.893-21.94,12.013-32.847c2.214-5.862,4.95-11.527,7.287-17.346
			c0.454-1.132,0.574-2.735,0.134-3.837c-6.206-15.534-21.063-23.607-37.472-20.513c-10.125,1.909-19.03,6.655-27.415,12.317
			c-2.52,1.702-4.689,4.547-5.959,7.349c-2.736,6.034-4.755,12.315-6.123,18.924C105.177,136.878,104.842,142.035,104.803,149.23z
			 M188.665,88.34c0.127-0.735,0.231-1.091,0.244-1.45c0.513-15.295-2.923-29.597-10.959-42.679
			c-1.427-2.324-3.056-4.681-5.092-6.443c-4.642-4.017-7.997-4.76-11.948-2.413c-5.172,3.073-9.401,7.22-12.652,12.124
			c-5.568,8.4-10.729,17.076-15.911,25.727c-2.082,3.475-3.769,7.186-5.9,11.3C148.068,74.526,168.841,70.877,188.665,88.34z"/>
		<path fill-rule="evenodd" clip-rule="evenodd" fill="#10113D" d="M260.682,90.266c0,1.425-4.467,7.977-6.612,11.723
			c-0.629,1.098-1.66,2.036-2.03,3.199c-1.048,3.294-3.945,4.32-6.493,3.948c-3.032-0.442-5.935-2.183-8.691-3.723
			c-0.496-0.277-0.379-2.476,0.089-3.494c1.321-2.875,2.813-5.704,4.579-8.322c0.646-0.957,2.2-1.654,3.423-1.807
			C249.992,91.16,260.283,89.331,260.682,90.266z"/>
	</g>
</g>
</svg>
